<svg width="299" height="148" viewBox="0 0 299 148" fill="none" xmlns="http://www.w3.org/2000/svg">
<path fill-rule="evenodd" clip-rule="evenodd" d="M66 33H34C28.4772 33 24 37.4772 24 43V117H11C11 118.036 11.1313 119.041 11.3781 120C12.7102 125.176 17.4085 129 23 129H144C149.592 129 154.29 125.176 155.622 120C155.869 119.041 156 118.036 156 117H144V43C144 37.4772 139.523 33 134 33H101V36H134C137.866 36 141 39.134 141 43V114H27V43C27 39.134 30.134 36 34 36H66V33ZM152.488 120H14.5121C15.7476 123.496 19.0813 126 23 126H144C147.919 126 151.252 123.496 152.488 120Z" fill="#000"/>
<path d="M153 20V0H156V20H153Z" fill="#000"/>
<path d="M153 31V24H156V31H153Z" fill="#000"/>
<path d="M12 48V28H15V48H12Z" fill="#000"/>
<path d="M12 59V52H15V59H12Z" fill="#000"/>
<path d="M116.445 21.2188C116.846 21.2083 117.172 21.1016 117.422 20.8984C117.677 20.6901 117.846 20.4062 117.93 20.0469C118.013 19.6875 118.057 19.0729 118.062 18.2031C118.068 17.3333 118.083 16.7604 118.109 16.4844C118.156 16.0469 118.242 15.6953 118.367 15.4297C118.497 15.1641 118.656 14.9531 118.844 14.7969C119.031 14.6354 119.271 14.513 119.562 14.4297C119.76 14.3776 120.083 14.3516 120.531 14.3516H120.969V15.5781H120.727C120.185 15.5781 119.826 15.6771 119.648 15.875C119.471 16.0677 119.383 16.5026 119.383 17.1797C119.383 18.5443 119.354 19.4062 119.297 19.7656C119.203 20.3229 119.042 20.7526 118.812 21.0547C118.589 21.3568 118.234 21.625 117.75 21.8594C118.323 22.099 118.737 22.4661 118.992 22.9609C119.253 23.4505 119.383 24.2552 119.383 25.375C119.383 26.3906 119.393 26.9948 119.414 27.1875C119.456 27.5417 119.56 27.7891 119.727 27.9297C119.898 28.0703 120.232 28.1406 120.727 28.1406H120.969V29.3672H120.531C120.021 29.3672 119.651 29.3255 119.422 29.2422C119.089 29.1224 118.812 28.9271 118.594 28.6562C118.375 28.3906 118.232 28.0521 118.164 27.6406C118.102 27.2292 118.068 26.5547 118.062 25.6172C118.057 24.6797 118.013 24.0312 117.93 23.6719C117.846 23.3125 117.677 23.0286 117.422 22.8203C117.172 22.612 116.846 22.5026 116.445 22.4922V21.2188Z" fill="#000"/>
<path d="M130.688 21.2188V22.4922C130.286 22.5026 129.958 22.612 129.703 22.8203C129.453 23.0286 129.286 23.3125 129.203 23.6719C129.12 24.026 129.076 24.638 129.07 25.5078C129.065 26.3776 129.049 26.9505 129.023 27.2266C128.977 27.6693 128.888 28.0208 128.758 28.2812C128.633 28.5469 128.477 28.7578 128.289 28.9141C128.102 29.0755 127.862 29.1979 127.57 29.2812C127.372 29.3385 127.049 29.3672 126.602 29.3672H126.164V28.1406H126.406C126.948 28.1406 127.307 28.0417 127.484 27.8438C127.661 27.651 127.75 27.2135 127.75 26.5312C127.75 25.2292 127.773 24.4036 127.82 24.0547C127.904 23.4766 128.07 23.0156 128.32 22.6719C128.57 22.3229 128.924 22.0521 129.383 21.8594C128.784 21.5729 128.362 21.1953 128.117 20.7266C127.872 20.2526 127.75 19.4557 127.75 18.3359C127.75 17.3203 127.737 16.7135 127.711 16.5156C127.674 16.1667 127.57 15.9245 127.398 15.7891C127.232 15.6484 126.901 15.5781 126.406 15.5781H126.164V14.3516H126.602C127.112 14.3516 127.482 14.3932 127.711 14.4766C128.044 14.5911 128.32 14.7839 128.539 15.0547C128.758 15.3255 128.898 15.6667 128.961 16.0781C129.029 16.4896 129.065 17.1641 129.07 18.1016C129.076 19.0391 129.12 19.6875 129.203 20.0469C129.286 20.401 129.453 20.6823 129.703 20.8906C129.958 21.099 130.286 21.2083 130.688 21.2188Z" fill="#000"/>
<path d="M149 144H129V141H149V144Z" fill="#000"/>
<path d="M160 144H153V141H160V144Z" fill="#000"/>
<path d="M146.452 145H160V148H146.452V145Z" fill="#000"/>
<path d="M139 145H143.742V148H139V145Z" fill="#000"/>
<path d="M20 6L0 6V9H20V6Z" fill="#000"/>
<path d="M31 6L24 6V9H31V6Z" fill="#000"/>
<path d="M17.4516 5L31 5V2L17.4516 2V5Z" fill="#000"/>
<path d="M10 5L14.7419 5V2L10 2V5Z" fill="#000"/>
<path fill-rule="evenodd" clip-rule="evenodd" d="M60.8108 20.9231C60.8108 24.1943 58.185 26.8462 54.9459 26.8462C51.7069 26.8462 49.0811 24.1943 49.0811 20.9231C49.0811 17.6519 51.7069 15 54.9459 15C58.185 15 60.8108 17.6519 60.8108 20.9231ZM50.843 20.9231C50.843 23.2116 52.6799 25.0668 54.9459 25.0668C57.2119 25.0668 59.0489 23.2116 59.0489 20.9231C59.0489 18.6346 57.2119 16.7794 54.9459 16.7794C52.6799 16.7794 50.843 18.6346 50.843 20.9231Z" fill="#000"/>
<path fill-rule="evenodd" clip-rule="evenodd" d="M8.86486 97.9231C12.1039 97.9231 14.7297 95.2712 14.7297 92C14.7297 88.7288 12.1039 86.0769 8.86486 86.0769C5.62579 86.0769 3 88.7288 3 92C3 95.2712 5.62579 97.9231 8.86486 97.9231ZM8.86486 96.1437C6.59887 96.1437 4.76191 94.2885 4.76191 92C4.76191 89.7115 6.59887 87.8563 8.86486 87.8563C11.1309 87.8563 12.9678 89.7115 12.9678 92C12.9678 94.2885 11.1309 96.1437 8.86486 96.1437Z" fill="#000"/>
<path fill-rule="evenodd" clip-rule="evenodd" d="M49.0811 147C52.3202 147 54.9459 144.348 54.9459 141.077C54.9459 137.806 52.3202 135.154 49.0811 135.154C45.842 135.154 43.2162 137.806 43.2162 141.077C43.2162 144.348 45.842 147 49.0811 147ZM49.0811 145.221C46.8151 145.221 44.9781 143.365 44.9781 141.077C44.9781 138.788 46.8151 136.933 49.0811 136.933C51.3471 136.933 53.184 138.788 53.184 141.077C53.184 143.365 51.3471 145.221 49.0811 145.221Z" fill="#000"/>
<path d="M50.6929 94.5385L46.1603 111.352L47.9727 111.834L52.5054 95.0211L50.6929 94.5385Z" fill="#000"/>
<path d="M62.3464 104.188L55.5043 97.3879L56.8311 96.0692L65 104.188L56.8311 112.308L55.5043 110.989L62.3464 104.188Z" fill="#000"/>
<path d="M34.9779 104.188L41.82 110.989L40.4932 112.308L32.3243 104.188L40.4932 96.0692L41.82 97.3879L34.9779 104.188Z" fill="#000"/>
<path d="M84.4453 97.2188C84.8464 97.2083 85.1719 97.1016 85.4219 96.8984C85.6771 96.6901 85.8464 96.4062 85.9297 96.0469C86.013 95.6875 86.0573 95.0729 86.0625 94.2031C86.0677 93.3333 86.0833 92.7604 86.1094 92.4844C86.1562 92.0469 86.2422 91.6953 86.3672 91.4297C86.4974 91.1641 86.6562 90.9531 86.8438 90.7969C87.0312 90.6354 87.2708 90.513 87.5625 90.4297C87.7604 90.3776 88.0833 90.3516 88.5312 90.3516H88.9688V91.5781H88.7266C88.1849 91.5781 87.8255 91.6771 87.6484 91.875C87.4714 92.0677 87.3828 92.5026 87.3828 93.1797C87.3828 94.5443 87.3542 95.4062 87.2969 95.7656C87.2031 96.3229 87.0417 96.7526 86.8125 97.0547C86.5885 97.3568 86.2344 97.625 85.75 97.8594C86.3229 98.099 86.737 98.4661 86.9922 98.9609C87.2526 99.4505 87.3828 100.255 87.3828 101.375C87.3828 102.391 87.3932 102.995 87.4141 103.188C87.4557 103.542 87.5599 103.789 87.7266 103.93C87.8984 104.07 88.2318 104.141 88.7266 104.141H88.9688V105.367H88.5312C88.0208 105.367 87.651 105.326 87.4219 105.242C87.0885 105.122 86.8125 104.927 86.5938 104.656C86.375 104.391 86.2318 104.052 86.1641 103.641C86.1016 103.229 86.0677 102.555 86.0625 101.617C86.0573 100.68 86.013 100.031 85.9297 99.6719C85.8464 99.3125 85.6771 99.0286 85.4219 98.8203C85.1719 98.612 84.8464 98.5026 84.4453 98.4922V97.2188Z" fill="#000"/>
<path d="M98.6875 97.2188V98.4922C98.2865 98.5026 97.9583 98.612 97.7031 98.8203C97.4531 99.0286 97.2865 99.3125 97.2031 99.6719C97.1198 100.026 97.0755 100.638 97.0703 101.508C97.0651 102.378 97.0495 102.951 97.0234 103.227C96.9766 103.669 96.888 104.021 96.7578 104.281C96.6328 104.547 96.4766 104.758 96.2891 104.914C96.1016 105.076 95.862 105.198 95.5703 105.281C95.3724 105.339 95.0495 105.367 94.6016 105.367H94.1641V104.141H94.4062C94.9479 104.141 95.3073 104.042 95.4844 103.844C95.6615 103.651 95.75 103.214 95.75 102.531C95.75 101.229 95.7734 100.404 95.8203 100.055C95.9036 99.4766 96.0703 99.0156 96.3203 98.6719C96.5703 98.3229 96.9245 98.0521 97.3828 97.8594C96.7839 97.5729 96.362 97.1953 96.1172 96.7266C95.8724 96.2526 95.75 95.4557 95.75 94.3359C95.75 93.3203 95.737 92.7135 95.7109 92.5156C95.6745 92.1667 95.5703 91.9245 95.3984 91.7891C95.2318 91.6484 94.901 91.5781 94.4062 91.5781H94.1641V90.3516H94.6016C95.112 90.3516 95.4818 90.3932 95.7109 90.4766C96.0443 90.5911 96.3203 90.7839 96.5391 91.0547C96.7578 91.3255 96.8984 91.6667 96.9609 92.0781C97.0286 92.4896 97.0651 93.1641 97.0703 94.1016C97.0755 95.0391 97.1198 95.6875 97.2031 96.0469C97.2865 96.401 97.4531 96.6823 97.7031 96.8906C97.9583 97.099 98.2865 97.2083 98.6875 97.2188Z" fill="#000"/>
<path d="M161.24 56.2C160.12 56.2 159.213 56.0133 158.52 55.64C157.853 55.24 157.32 54.7867 156.92 54.28C156.52 53.7733 156.24 53.2667 156.08 52.76C155.92 52.2267 155.827 51.8267 155.8 51.56H154.84C154.653 51.56 154.493 51.5733 154.36 51.6C154.227 51.6267 154.107 51.6533 154 51.68C153.893 51.7333 153.787 51.7733 153.68 51.8C153.547 52.44 153.427 53.1333 153.32 53.88C153.213 54.52 153.12 55.2933 153.04 56.2C152.987 57.08 152.96 58.04 152.96 59.08C152.96 60.12 152.987 61.08 153.04 61.96C153.12 62.84 153.213 63.6 153.32 64.24C153.427 64.9867 153.547 65.6667 153.68 66.28C153.787 66.3333 153.933 66.3733 154.12 66.4C154.253 66.4267 154.44 66.4533 154.68 66.48C154.92 66.48 155.213 66.48 155.56 66.48C156.147 66.48 156.707 66.4267 157.24 66.32C157.773 66.2133 158.227 66.0267 158.6 65.76C159 65.4667 159.307 65.08 159.52 64.6C159.76 64.12 159.88 63.5067 159.88 62.76H161.8C161.8 64.04 161.587 65.0533 161.16 65.8C160.733 66.5467 160.187 67.12 159.52 67.52C158.88 67.8933 158.173 68.1333 157.4 68.24C156.653 68.3467 155.96 68.4 155.32 68.4C153.693 68.4 152.307 68.24 151.16 67.92C150.04 67.5733 149.12 67.04 148.4 66.32C147.707 65.5733 147.2 64.6133 146.88 63.44C146.56 62.24 146.4 60.7867 146.4 59.08C146.4 57.3733 146.533 55.9333 146.8 54.76C147.093 53.56 147.587 52.6 148.28 51.88C148.973 51.1333 149.893 50.6 151.04 50.28C152.213 49.9333 153.693 49.76 155.48 49.76C156.12 49.76 156.773 49.7733 157.44 49.8C158.133 49.8267 158.76 49.8667 159.32 49.92C159.987 49.9733 160.627 50.0133 161.24 50.04V56.2Z" fill="#000"/>
<path d="M170.773 59.08C170.773 60.12 170.799 61.0933 170.852 62C170.932 62.88 171.026 63.64 171.133 64.28C171.239 65.0533 171.359 65.7467 171.492 66.36C171.626 66.4133 171.799 66.4533 172.012 66.48C172.359 66.56 172.866 66.6 173.533 66.6C174.173 66.6 174.679 66.56 175.053 66.48C175.266 66.4533 175.439 66.4133 175.572 66.36C175.706 65.7467 175.826 65.0533 175.932 64.28C176.012 63.64 176.093 62.88 176.173 62C176.253 61.0933 176.292 60.12 176.292 59.08C176.292 58.04 176.253 57.08 176.173 56.2C176.093 55.32 176.012 54.5467 175.932 53.88C175.826 53.1333 175.706 52.44 175.572 51.8C175.412 51.7733 175.226 51.7333 175.012 51.68C174.826 51.6533 174.599 51.6267 174.333 51.6C174.093 51.5733 173.826 51.56 173.533 51.56C173.186 51.56 172.892 51.5733 172.652 51.6C172.412 51.6267 172.199 51.6533 172.012 51.68C171.799 51.7333 171.626 51.7733 171.492 51.8C171.359 52.44 171.239 53.1333 171.133 53.88C171.026 54.5467 170.932 55.32 170.852 56.2C170.799 57.08 170.773 58.04 170.773 59.08ZM164.212 59.08C164.212 57.3733 164.373 55.9333 164.693 54.76C165.013 53.56 165.546 52.6 166.292 51.88C167.039 51.1333 167.999 50.6 169.173 50.28C170.346 49.9333 171.799 49.76 173.533 49.76C175.239 49.76 176.679 49.9333 177.852 50.28C179.052 50.6 180.026 51.1333 180.773 51.88C181.519 52.6 182.052 53.56 182.372 54.76C182.692 55.9333 182.853 57.3733 182.853 59.08C182.853 60.7867 182.692 62.24 182.372 63.44C182.052 64.6133 181.519 65.5733 180.773 66.32C180.026 67.04 179.052 67.5733 177.852 67.92C176.679 68.24 175.239 68.4 173.533 68.4C171.799 68.4 170.346 68.24 169.173 67.92C167.999 67.5733 167.039 67.04 166.292 66.32C165.546 65.5733 165.013 64.6133 164.693 63.44C164.373 62.24 164.212 60.7867 164.212 59.08Z" fill="#000"/>
<path d="M192.218 59.08C192.218 60.12 192.244 61.0933 192.298 62C192.378 62.88 192.471 63.64 192.578 64.28C192.684 65.0533 192.804 65.7467 192.938 66.36C193.071 66.4133 193.244 66.4533 193.458 66.48C193.804 66.56 194.311 66.6 194.978 66.6C195.618 66.6 196.124 66.56 196.498 66.48C196.711 66.4533 196.884 66.4133 197.018 66.36C197.151 65.7467 197.271 65.0533 197.378 64.28C197.458 63.64 197.538 62.88 197.618 62C197.698 61.0933 197.738 60.12 197.738 59.08C197.738 58.04 197.698 57.08 197.618 56.2C197.538 55.32 197.458 54.5467 197.378 53.88C197.271 53.1333 197.151 52.44 197.018 51.8C196.858 51.7733 196.671 51.7333 196.458 51.68C196.271 51.6533 196.044 51.6267 195.778 51.6C195.538 51.5733 195.271 51.56 194.978 51.56C194.631 51.56 194.338 51.5733 194.098 51.6C193.858 51.6267 193.644 51.6533 193.458 51.68C193.244 51.7333 193.071 51.7733 192.938 51.8C192.804 52.44 192.684 53.1333 192.578 53.88C192.471 54.5467 192.378 55.32 192.298 56.2C192.244 57.08 192.218 58.04 192.218 59.08ZM185.658 59.08C185.658 57.3733 185.818 55.9333 186.138 54.76C186.458 53.56 186.991 52.6 187.738 51.88C188.484 51.1333 189.444 50.6 190.618 50.28C191.791 49.9333 193.244 49.76 194.978 49.76C196.684 49.76 198.124 49.9333 199.298 50.28C200.498 50.6 201.471 51.1333 202.218 51.88C202.964 52.6 203.498 53.56 203.818 54.76C204.138 55.9333 204.298 57.3733 204.298 59.08C204.298 60.7867 204.138 62.24 203.818 63.44C203.498 64.6133 202.964 65.5733 202.218 66.32C201.471 67.04 200.498 67.5733 199.298 67.92C198.124 68.24 196.684 68.4 194.978 68.4C193.244 68.4 191.791 68.24 190.618 67.92C189.444 67.5733 188.484 67.04 187.738 66.32C186.991 65.5733 186.458 64.6133 186.138 63.44C185.818 62.24 185.658 60.7867 185.658 59.08Z" fill="#000"/>
<path d="M206.103 43.4H208.463L214.783 42.24V66C215.823 66 216.476 65.7333 216.743 65.2C217.036 64.6667 217.183 63.76 217.183 62.48H219.223C219.223 63.3067 219.183 64.0667 219.103 64.76C219.023 65.4533 218.783 66.0533 218.383 66.56C218.01 67.0667 217.423 67.4667 216.623 67.76C215.823 68.0267 214.703 68.16 213.263 68.16C212.276 68.16 211.463 68.0133 210.823 67.72C210.21 67.4267 209.73 67.08 209.383 66.68C209.036 66.2533 208.796 65.8267 208.663 65.4C208.53 64.9467 208.463 64.5733 208.463 64.28V45.4H206.103V43.4Z" fill="#000"/>
<path d="M217.798 50.04H226.158L231.318 60.32L234.918 52.08H231.718V50.04H240.038V52.08H237.238L229.878 69.2H229.038L219.958 52.08H217.798V50.04Z" fill="#000"/>
<path d="M240.848 50.36H243.208L249.528 49.4V65.96H251.888V68H240.848V65.96H243.208V52.36H240.848V50.36ZM243.208 44.12C243.208 43 243.448 42.1733 243.928 41.64C244.408 41.08 245.222 40.8 246.368 40.8C247.568 40.8 248.395 41.08 248.848 41.64C249.302 42.1733 249.528 43 249.528 44.12C249.528 45.2667 249.275 46.1067 248.768 46.64C248.288 47.1467 247.488 47.4 246.368 47.4C245.222 47.4 244.408 47.1467 243.928 46.64C243.448 46.1067 243.208 45.2667 243.208 44.12Z" fill="#000"/>
<path d="M253.095 43.4H255.455L261.775 42.24V66C262.815 66 263.469 65.7333 263.735 65.2C264.029 64.6667 264.175 63.76 264.175 62.48H266.215C266.215 63.3067 266.175 64.0667 266.095 64.76C266.015 65.4533 265.775 66.0533 265.375 66.56C265.002 67.0667 264.415 67.4667 263.615 67.76C262.815 68.0267 261.695 68.16 260.255 68.16C259.269 68.16 258.455 68.0133 257.815 67.72C257.202 67.4267 256.722 67.08 256.375 66.68C256.029 66.2533 255.789 65.8267 255.655 65.4C255.522 64.9467 255.455 64.5733 255.455 64.28V45.4H253.095V43.4Z" fill="#000"/>
<path d="M267.002 43.4H269.362L275.682 42.24V66C276.722 66 277.375 65.7333 277.642 65.2C277.935 64.6667 278.082 63.76 278.082 62.48H280.122C280.122 63.3067 280.082 64.0667 280.002 64.76C279.922 65.4533 279.682 66.0533 279.282 66.56C278.908 67.0667 278.322 67.4667 277.522 67.76C276.722 68.0267 275.602 68.16 274.162 68.16C273.175 68.16 272.362 68.0133 271.722 67.72C271.108 67.4267 270.628 67.08 270.282 66.68C269.935 66.2533 269.695 65.8267 269.562 65.4C269.428 64.9467 269.362 64.5733 269.362 64.28V45.4H267.002V43.4Z" fill="#000"/>
<path d="M290.988 49.76C292.454 49.76 293.668 49.9067 294.628 50.2C295.588 50.4667 296.361 50.9067 296.948 51.52C297.534 52.1333 297.948 52.9467 298.188 53.96C298.428 54.9467 298.548 56.1733 298.548 57.64C298.548 58.0933 298.534 58.4933 298.508 58.84C298.481 59.16 298.454 59.4267 298.428 59.64C298.401 59.9067 298.374 60.1067 298.348 60.24H288.468C288.494 61.1467 288.548 61.9733 288.628 62.72C288.708 63.44 288.788 64.0667 288.868 64.6C288.974 65.24 289.081 65.8 289.188 66.28C289.268 66.3333 289.388 66.3733 289.548 66.4C289.681 66.4267 289.868 66.4533 290.108 66.48C290.374 66.48 290.708 66.48 291.108 66.48C291.774 66.48 292.401 66.44 292.988 66.36C293.601 66.2533 294.134 66.0933 294.588 65.88C295.041 65.6667 295.388 65.3733 295.628 65C295.894 64.6 296.028 64.12 296.028 63.56H298.188C298.188 64.68 297.934 65.56 297.428 66.2C296.948 66.84 296.334 67.3333 295.588 67.68C294.868 68 294.081 68.2 293.228 68.28C292.374 68.36 291.574 68.4 290.828 68.4C289.201 68.4 287.814 68.24 286.668 67.92C285.548 67.5733 284.628 67.04 283.908 66.32C283.214 65.5733 282.708 64.6133 282.388 63.44C282.068 62.24 281.908 60.7867 281.908 59.08C281.908 57.3733 282.041 55.9333 282.308 54.76C282.601 53.56 283.094 52.6 283.788 51.88C284.481 51.1333 285.401 50.6 286.548 50.28C287.721 49.9333 289.201 49.76 290.988 49.76ZM289.188 51.8C289.054 52.3867 288.934 53.0267 288.828 53.72C288.748 54.3333 288.668 55.0533 288.588 55.88C288.508 56.68 288.468 57.56 288.468 58.52H292.348C292.294 57.4 292.228 56.4267 292.148 55.6C292.068 54.7467 291.974 54.04 291.868 53.48C291.761 52.8133 291.641 52.2533 291.508 51.8C291.428 51.7733 291.334 51.7333 291.228 51.68C291.121 51.6533 290.988 51.6267 290.828 51.6C290.694 51.5733 290.534 51.56 290.348 51.56C290.161 51.56 290.001 51.5733 289.868 51.6C289.734 51.6267 289.614 51.6533 289.508 51.68C289.401 51.7333 289.294 51.7733 289.188 51.8Z" fill="#000"/>
<path d="M174.3 69.7H177.94L181.06 75.36L183.06 70.86H181.02V69.7H185.76V70.86H184.28L181.58 76.86V80.84H183.36V82H176.44V80.84H178.22V76.94L174.3 70.12V69.7Z" fill="#000"/>
<path d="M188.429 77.54C188.429 78.06 188.443 78.5467 188.469 79C188.509 79.44 188.556 79.82 188.609 80.14C188.663 80.5267 188.723 80.8733 188.789 81.18C188.856 81.2067 188.943 81.2267 189.049 81.24C189.223 81.28 189.476 81.3 189.809 81.3C190.129 81.3 190.383 81.28 190.569 81.24C190.676 81.2267 190.763 81.2067 190.829 81.18C190.896 80.8733 190.956 80.5267 191.009 80.14C191.049 79.82 191.089 79.44 191.129 79C191.169 78.5467 191.189 78.06 191.189 77.54C191.189 77.02 191.169 76.54 191.129 76.1C191.089 75.66 191.049 75.2733 191.009 74.94C190.956 74.5667 190.896 74.22 190.829 73.9C190.749 73.8867 190.656 73.8667 190.549 73.84C190.456 73.8267 190.343 73.8133 190.209 73.8C190.089 73.7867 189.956 73.78 189.809 73.78C189.636 73.78 189.489 73.7867 189.369 73.8C189.249 73.8133 189.143 73.8267 189.049 73.84C188.943 73.8667 188.856 73.8867 188.789 73.9C188.723 74.22 188.663 74.5667 188.609 74.94C188.556 75.2733 188.509 75.66 188.469 76.1C188.443 76.54 188.429 77.02 188.429 77.54ZM185.149 77.54C185.149 76.6867 185.229 75.9667 185.389 75.38C185.549 74.78 185.816 74.3 186.189 73.94C186.563 73.5667 187.043 73.3 187.629 73.14C188.216 72.9667 188.943 72.88 189.809 72.88C190.663 72.88 191.383 72.9667 191.969 73.14C192.569 73.3 193.056 73.5667 193.429 73.94C193.803 74.3 194.069 74.78 194.229 75.38C194.389 75.9667 194.469 76.6867 194.469 77.54C194.469 78.3933 194.389 79.12 194.229 79.72C194.069 80.3067 193.803 80.7867 193.429 81.16C193.056 81.52 192.569 81.7867 191.969 81.96C191.383 82.12 190.663 82.2 189.809 82.2C188.943 82.2 188.216 82.12 187.629 81.96C187.043 81.7867 186.563 81.52 186.189 81.16C185.816 80.7867 185.549 80.3067 185.389 79.72C185.229 79.12 185.149 78.3933 185.149 77.54Z" fill="#000"/>
<path d="M195.472 73.38H196.652L199.672 72.8V80.9C199.699 80.9133 199.739 80.9267 199.792 80.94C199.845 80.9533 199.992 80.96 200.232 80.96C200.512 80.96 200.759 80.9067 200.972 80.8C201.185 80.68 201.372 80.5467 201.532 80.4C201.692 80.2533 201.825 80.1067 201.932 79.96C202.039 79.8133 202.112 79.7 202.152 79.62V73.02H205.312V81H205.572C205.692 81 205.812 80.9933 205.932 80.98L206.372 80.94V81.9C206.132 81.94 205.899 81.9733 205.672 82C205.485 82.0267 205.285 82.0467 205.072 82.06C204.859 82.0733 204.685 82.08 204.552 82.08C204.205 82.08 203.905 82.0467 203.652 81.98C203.399 81.9 203.179 81.8 202.992 81.68C202.819 81.56 202.672 81.4267 202.552 81.28C202.432 81.12 202.345 80.9667 202.292 80.82C202.265 80.86 202.192 80.9533 202.072 81.1C201.952 81.2467 201.765 81.4 201.512 81.56C201.272 81.7067 200.959 81.84 200.572 81.96C200.199 82.08 199.732 82.14 199.172 82.14C198.865 82.14 198.552 82.1133 198.232 82.06C197.925 82.0067 197.639 81.9133 197.372 81.78C197.119 81.6333 196.912 81.44 196.752 81.2C196.592 80.96 196.512 80.6467 196.512 80.26V74.38H195.472V73.38Z" fill="#000"/>
<path d="M215.737 69.7L218.717 76.72L221.397 69.7H226.537V70.86H224.757V80.84H226.537V82H221.397V73L217.957 81.96L217.937 81.94L217.917 82H217.297L213.517 72.88V80.84H215.297V82H210.477V80.84H212.257V70.86H210.477V69.7H215.737Z" fill="#000"/>
<path d="M235.597 81H235.857C235.977 81 236.097 80.9933 236.217 80.98L236.657 80.94V81.9C236.417 81.94 236.183 81.9733 235.957 82C235.77 82.0267 235.57 82.0467 235.357 82.06C235.143 82.0733 234.97 82.08 234.837 82.08C234.183 82.08 233.69 81.96 233.357 81.72C233.023 81.48 232.783 81.22 232.637 80.94C232.343 81.3133 232.003 81.6133 231.617 81.84C231.243 82.0533 230.81 82.16 230.317 82.16C229.41 82.16 228.737 81.9933 228.297 81.66C227.857 81.3133 227.637 80.72 227.637 79.88C227.637 79.5867 227.637 79.3067 227.637 79.04C227.65 78.7733 227.67 78.54 227.697 78.34C227.723 78.1 227.75 77.8867 227.777 77.7L232.417 76.56C232.403 76.1733 232.39 75.82 232.377 75.5C232.363 75.1667 232.35 74.8867 232.337 74.66C232.31 74.3933 232.29 74.1533 232.277 73.94C232.237 73.9267 232.177 73.9133 232.097 73.9C232.03 73.8867 231.93 73.8733 231.797 73.86C231.663 73.8467 231.503 73.84 231.317 73.84C231.197 73.84 231.083 73.8467 230.977 73.86C230.87 73.86 230.763 73.8667 230.657 73.88C230.617 74.0667 230.55 74.2933 230.457 74.56C230.363 74.8133 230.217 75.06 230.017 75.3C229.817 75.5267 229.55 75.7267 229.217 75.9C228.897 76.06 228.483 76.14 227.977 76.14V73.12C228.403 73.08 228.837 73.04 229.277 73C229.663 72.9733 230.077 72.9467 230.517 72.92C230.957 72.8933 231.383 72.88 231.797 72.88C232.663 72.88 233.343 72.9533 233.837 73.1C234.343 73.2467 234.723 73.5 234.977 73.86C235.243 74.22 235.41 74.7 235.477 75.3C235.557 75.9 235.597 76.6467 235.597 77.54V81ZM230.957 81.08C231.223 81.0133 231.477 80.8467 231.717 80.58C231.97 80.3 232.21 79.9667 232.437 79.58V77.46L230.917 77.88C230.89 78.0933 230.87 78.3133 230.857 78.54C230.843 78.7533 230.837 78.9667 230.837 79.18C230.837 79.4467 230.837 79.6933 230.837 79.92C230.85 80.1467 230.87 80.3467 230.897 80.52C230.91 80.72 230.93 80.9067 230.957 81.08Z" fill="#000"/>
<path d="M238.249 72.1L241.409 71.24V73.02H243.809V74.02H241.409V81H241.829C242.603 81 242.989 80.4133 242.989 79.24H244.009C244.009 79.6667 243.983 80.0533 243.929 80.4C243.889 80.7467 243.763 81.0467 243.549 81.3C243.349 81.5533 243.043 81.7467 242.629 81.88C242.229 82.0133 241.669 82.08 240.949 82.08C240.456 82.08 240.036 82.0267 239.689 81.92C239.343 81.8 239.063 81.6467 238.849 81.46C238.636 81.2733 238.483 81.0667 238.389 80.84C238.296 80.6133 238.249 80.38 238.249 80.14V72.1Z" fill="#000"/>
<path d="M245.613 72.1L248.773 71.24V73.02H251.173V74.02H248.773V81H249.193C249.966 81 250.352 80.4133 250.352 79.24H251.372C251.372 79.6667 251.346 80.0533 251.292 80.4C251.252 80.7467 251.126 81.0467 250.913 81.3C250.713 81.5533 250.406 81.7467 249.992 81.88C249.592 82.0133 249.033 82.08 248.312 82.08C247.819 82.08 247.399 82.0267 247.053 81.92C246.706 81.8 246.426 81.6467 246.212 81.46C245.999 81.2733 245.846 81.0667 245.753 80.84C245.659 80.6133 245.613 80.38 245.613 80.14V72.1Z" fill="#000"/>
<path d="M256.916 72.88C257.649 72.88 258.256 72.9533 258.736 73.1C259.216 73.2333 259.602 73.4533 259.896 73.76C260.189 74.0667 260.396 74.4733 260.516 74.98C260.636 75.4733 260.696 76.0867 260.696 76.82C260.696 77.0467 260.689 77.2467 260.676 77.42C260.662 77.58 260.649 77.7133 260.636 77.82C260.622 77.9533 260.609 78.0533 260.596 78.12H255.656C255.669 78.5733 255.696 78.9867 255.736 79.36C255.776 79.72 255.816 80.0333 255.856 80.3C255.909 80.62 255.962 80.9 256.016 81.14C256.056 81.1667 256.116 81.1867 256.196 81.2C256.262 81.2133 256.356 81.2267 256.476 81.24C256.609 81.24 256.776 81.24 256.976 81.24C257.309 81.24 257.622 81.22 257.916 81.18C258.222 81.1267 258.489 81.0467 258.716 80.94C258.942 80.8333 259.116 80.6867 259.236 80.5C259.369 80.3 259.436 80.06 259.436 79.78H260.516C260.516 80.34 260.389 80.78 260.136 81.1C259.896 81.42 259.589 81.6667 259.216 81.84C258.856 82 258.462 82.1 258.036 82.14C257.609 82.18 257.209 82.2 256.836 82.2C256.022 82.2 255.329 82.12 254.756 81.96C254.196 81.7867 253.736 81.52 253.376 81.16C253.029 80.7867 252.776 80.3067 252.616 79.72C252.456 79.12 252.376 78.3933 252.376 77.54C252.376 76.6867 252.442 75.9667 252.576 75.38C252.722 74.78 252.969 74.3 253.316 73.94C253.662 73.5667 254.122 73.3 254.696 73.14C255.282 72.9667 256.022 72.88 256.916 72.88ZM256.016 73.9C255.949 74.1933 255.889 74.5133 255.836 74.86C255.796 75.1667 255.756 75.5267 255.716 75.94C255.676 76.34 255.656 76.78 255.656 77.26H257.596C257.569 76.7 257.536 76.2133 257.496 75.8C257.456 75.3733 257.409 75.02 257.356 74.74C257.302 74.4067 257.242 74.1267 257.176 73.9C257.136 73.8867 257.089 73.8667 257.036 73.84C256.982 73.8267 256.916 73.8133 256.836 73.8C256.769 73.7867 256.689 73.78 256.596 73.78C256.502 73.78 256.422 73.7867 256.356 73.8C256.289 73.8133 256.229 73.8267 256.176 73.84C256.122 73.8667 256.069 73.8867 256.016 73.9Z" fill="#000"/>
<path d="M262.002 73.38H263.182L266.202 72.8V74.08C266.216 74.04 266.262 73.96 266.342 73.84C266.436 73.7067 266.576 73.5733 266.762 73.44C266.962 73.2933 267.216 73.1667 267.522 73.06C267.842 72.94 268.242 72.88 268.722 72.88C269.016 72.88 269.242 72.8867 269.402 72.9C269.576 72.9133 269.709 72.9267 269.802 72.94C269.909 72.9533 269.976 72.9667 270.002 72.98V76.84C269.522 76.84 269.122 76.7467 268.802 76.56C268.482 76.3733 268.222 76.14 268.022 75.86C267.822 75.58 267.669 75.2867 267.562 74.98C267.456 74.6733 267.382 74.4 267.342 74.16C267.222 74.2267 267.109 74.32 267.002 74.44C266.896 74.5467 266.796 74.6667 266.702 74.8C266.622 74.92 266.549 75.04 266.482 75.16C266.416 75.2667 266.369 75.3533 266.342 75.42V80.98H267.522V82H262.002V80.98H263.182V74.38H262.002V73.38Z" fill="#000"/>
<path d="M151.742 114.367C150.966 113.388 150.31 112.242 149.773 110.93C149.237 109.617 148.969 108.258 148.969 106.852C148.969 105.612 149.169 104.424 149.57 103.289C150.039 101.971 150.763 100.659 151.742 99.3516H152.75C152.12 100.435 151.703 101.208 151.5 101.672C151.182 102.391 150.932 103.141 150.75 103.922C150.526 104.896 150.414 105.875 150.414 106.859C150.414 109.365 151.193 111.867 152.75 114.367H151.742Z" fill="#000"/>
<path d="M155.305 114.367H154.297C155.854 111.867 156.633 109.365 156.633 106.859C156.633 105.88 156.521 104.909 156.297 103.945C156.12 103.164 155.872 102.414 155.555 101.695C155.352 101.227 154.932 100.445 154.297 99.3516H155.305C156.284 100.659 157.008 101.971 157.477 103.289C157.878 104.424 158.078 105.612 158.078 106.852C158.078 108.258 157.807 109.617 157.266 110.93C156.729 112.242 156.076 113.388 155.305 114.367Z" fill="#000"/>
<path d="M167.109 104.266H159.547V102.953H167.109V104.266ZM167.109 107.742H159.547V106.43H167.109V107.742Z" fill="#000"/>
<path d="M176.461 105.992L168.875 109.234V107.836L174.883 105.344L168.875 102.875V101.477L176.461 104.68V105.992Z" fill="#000"/>
<path d="M177.789 106.219C178.19 106.208 178.516 106.102 178.766 105.898C179.021 105.69 179.19 105.406 179.273 105.047C179.357 104.688 179.401 104.073 179.406 103.203C179.411 102.333 179.427 101.76 179.453 101.484C179.5 101.047 179.586 100.695 179.711 100.43C179.841 100.164 180 99.9531 180.188 99.7969C180.375 99.6354 180.615 99.513 180.906 99.4297C181.104 99.3776 181.427 99.3516 181.875 99.3516H182.312V100.578H182.07C181.529 100.578 181.169 100.677 180.992 100.875C180.815 101.068 180.727 101.503 180.727 102.18C180.727 103.544 180.698 104.406 180.641 104.766C180.547 105.323 180.385 105.753 180.156 106.055C179.932 106.357 179.578 106.625 179.094 106.859C179.667 107.099 180.081 107.466 180.336 107.961C180.596 108.451 180.727 109.255 180.727 110.375C180.727 111.391 180.737 111.995 180.758 112.188C180.799 112.542 180.904 112.789 181.07 112.93C181.242 113.07 181.576 113.141 182.07 113.141H182.312V114.367H181.875C181.365 114.367 180.995 114.326 180.766 114.242C180.432 114.122 180.156 113.927 179.938 113.656C179.719 113.391 179.576 113.052 179.508 112.641C179.445 112.229 179.411 111.555 179.406 110.617C179.401 109.68 179.357 109.031 179.273 108.672C179.19 108.312 179.021 108.029 178.766 107.82C178.516 107.612 178.19 107.503 177.789 107.492V106.219Z" fill="#000"/>
<path d="M187.578 106.219V107.492C187.177 107.503 186.849 107.612 186.594 107.82C186.344 108.029 186.177 108.312 186.094 108.672C186.01 109.026 185.966 109.638 185.961 110.508C185.956 111.378 185.94 111.951 185.914 112.227C185.867 112.669 185.779 113.021 185.648 113.281C185.523 113.547 185.367 113.758 185.18 113.914C184.992 114.076 184.753 114.198 184.461 114.281C184.263 114.339 183.94 114.367 183.492 114.367H183.055V113.141H183.297C183.839 113.141 184.198 113.042 184.375 112.844C184.552 112.651 184.641 112.214 184.641 111.531C184.641 110.229 184.664 109.404 184.711 109.055C184.794 108.477 184.961 108.016 185.211 107.672C185.461 107.323 185.815 107.052 186.273 106.859C185.674 106.573 185.253 106.195 185.008 105.727C184.763 105.253 184.641 104.456 184.641 103.336C184.641 102.32 184.628 101.714 184.602 101.516C184.565 101.167 184.461 100.924 184.289 100.789C184.122 100.648 183.792 100.578 183.297 100.578H183.055V99.3516H183.492C184.003 99.3516 184.372 99.3932 184.602 99.4766C184.935 99.5911 185.211 99.7839 185.43 100.055C185.648 100.326 185.789 100.667 185.852 101.078C185.919 101.49 185.956 102.164 185.961 103.102C185.966 104.039 186.01 104.688 186.094 105.047C186.177 105.401 186.344 105.682 186.594 105.891C186.849 106.099 187.177 106.208 187.578 106.219Z" fill="#000"/>
<path fill-rule="evenodd" clip-rule="evenodd" d="M86.2779 46.3127C88.1331 48.3144 88.0143 51.4411 86.0126 53.2963C84.0109 55.1515 80.8842 55.0328 79.029 53.031C77.1737 51.0293 77.2925 47.9026 79.2942 46.0474C81.296 44.1922 84.4226 44.3109 86.2779 46.3127ZM80.2821 51.8697C81.4959 53.1793 83.5416 53.257 84.8512 52.0432C86.1609 50.8294 86.2386 48.7837 85.0248 47.4741C83.811 46.1644 81.7653 46.0867 80.4556 47.3005C79.146 48.5143 79.0683 50.56 80.2821 51.8697Z" fill="#000"/>
<path fill-rule="evenodd" clip-rule="evenodd" d="M73.609 40.4318L74.1279 39.9509C75.2912 38.8727 77.0398 38.8218 78.2572 39.7557C78.6742 39.5707 79.1001 39.4135 79.532 39.284C79.8473 37.782 81.2075 36.6813 82.7927 36.7415L83.4986 36.7683C85.0838 36.8285 86.3565 38.0292 86.557 39.5507C86.9779 39.7127 87.3906 39.9017 87.7924 40.1178C89.0771 39.279 90.8168 39.4624 91.8949 40.6256L92.376 41.1447C93.4541 42.308 93.505 44.0565 92.5711 45.2739C92.7564 45.6916 92.9138 46.1182 93.0435 46.5508C94.5335 46.8699 95.6239 48.2219 95.5641 49.7969L95.5363 50.5263C95.4765 52.1013 94.2866 53.3667 92.7767 53.5718C92.6145 53.9933 92.4252 54.4066 92.2088 54.809C93.0479 56.0938 92.8645 57.8338 91.7011 58.912L91.1824 59.3927C90.019 60.471 88.27 60.5218 87.0525 59.5877C86.6356 59.7726 86.2099 59.9297 85.7781 60.0593C85.4628 61.5613 84.1025 62.6622 82.5172 62.602L81.8117 62.5752C80.2263 62.515 78.9534 61.314 78.753 59.7923C78.3323 59.6304 77.9197 59.4414 77.5181 59.2254C76.2332 60.0646 74.493 59.8812 73.4147 58.7178L72.9341 58.1993C71.8558 57.0358 71.805 55.2867 72.7392 54.0692C72.5546 53.653 72.3976 53.2279 72.2682 52.7968C70.7542 52.4853 69.643 51.1169 69.7036 49.5213L69.7295 48.8393C69.7901 47.2438 71.0018 45.9637 72.535 45.7679C72.6968 45.3478 72.8855 44.9358 73.1012 44.5347C72.2623 43.2499 72.4457 41.51 73.609 40.4318ZM74.9685 41.8987C74.4795 42.3519 74.4505 43.1157 74.9037 43.6047C75.3014 44.0338 75.3259 44.6821 75.0291 45.1863C74.7256 45.7018 74.4785 46.2422 74.2881 46.7984C74.0966 47.3575 73.5836 47.7652 72.9931 47.7428C72.32 47.7172 71.7536 48.2422 71.728 48.9153L71.7021 49.5972C71.6766 50.2703 72.2015 50.8368 72.8747 50.8623C73.4652 50.8848 73.9458 51.3303 74.0943 51.9023C74.242 52.4711 74.4474 53.0285 74.7109 53.5655C74.9686 54.0909 74.895 54.7357 74.4658 55.1334C73.9767 55.5867 73.9477 56.3507 74.401 56.8398L74.8815 57.3582C75.3348 57.8473 76.0988 57.8763 76.5879 57.423C77.0171 57.0253 77.6656 57.0008 78.1699 57.2976C78.6882 57.6028 79.2317 57.8509 79.7909 58.0418C80.3448 58.2308 80.7486 58.7389 80.7264 59.3238C80.7011 59.9904 81.221 60.5513 81.8876 60.5766L82.5931 60.6034C83.2597 60.6287 83.8206 60.1089 83.8459 59.4423C83.8681 58.8574 84.3093 58.3814 84.876 58.235C85.4481 58.0871 86.0089 57.8809 86.5489 57.616C87.0742 57.3583 87.719 57.4319 88.1167 57.861C88.57 58.3501 89.3339 58.3791 89.8229 57.9258L90.3416 57.4451C90.8306 56.9919 90.8596 56.2281 90.4064 55.7391C90.0086 55.3099 89.9842 54.6615 90.281 54.1572C90.588 53.6359 90.8373 53.0891 91.0286 52.5264C91.2151 51.9778 91.7183 51.5781 92.2973 51.6001C92.9573 51.6251 93.5127 51.1104 93.5378 50.4504L93.5655 49.7209C93.5906 49.061 93.0759 48.5056 92.4159 48.4805C91.8368 48.4585 91.3654 48.0218 91.2211 47.4606C91.073 46.8849 90.8659 46.3206 90.5994 45.7774C90.3417 45.2522 90.4153 44.6076 90.8443 44.21C91.3332 43.7569 91.3622 42.9932 90.9091 42.5043L90.428 41.9852C89.9748 41.4963 89.2112 41.4672 88.7223 41.9204C88.2932 42.318 87.6449 42.3425 87.1408 42.0457C86.6223 41.7404 86.0786 41.4921 85.519 41.3012C84.9652 41.1123 84.5615 40.6043 84.5837 40.0195C84.609 39.353 84.0892 38.7922 83.4227 38.7669L82.7168 38.7401C82.0503 38.7147 81.4895 39.2345 81.4641 39.9011C81.4419 40.4858 81.0008 40.9618 80.4343 41.1082C79.8619 41.2561 79.301 41.4624 78.7608 41.7275C78.2356 41.9852 77.5909 41.9116 77.1933 41.4825C76.7401 40.9936 75.9764 40.9646 75.4874 41.4178L74.9685 41.8987Z" fill="#000"/>
<path fill-rule="evenodd" clip-rule="evenodd" d="M101.186 32.5137C110.663 42.7385 110.056 58.7096 99.8312 68.1861C89.6064 77.6626 73.6353 77.056 64.1588 66.8312C54.6823 56.6064 55.2889 40.6353 65.5137 31.1588C75.7385 21.6823 91.7096 22.2889 101.186 32.5137ZM67.9449 63.3221C75.4834 71.4559 88.1883 71.9385 96.3221 64.4C104.456 56.8615 104.939 44.1565 97.4 36.0228C89.8615 27.889 77.1565 27.4064 69.0228 34.9449C60.889 42.4834 60.4064 55.1883 67.9449 63.3221Z" fill="#000"/>
<path d="M98.2886 69.616L101.374 66.7562L108.524 74.4702L108.444 74.5441C109.852 74.134 111.434 74.5166 112.499 75.6655L127.652 92.0144C129.153 93.6347 129.057 96.1655 127.437 97.6672L127.133 97.9487C125.513 99.4504 122.982 99.3543 121.481 97.734L106.328 81.3851C105.263 80.2361 105.002 78.6293 105.518 77.2563L105.438 77.33L98.2886 69.616Z" fill="#000"/>
</svg>
